<svg width="38" height="38" viewBox="0 0 38 38" fill="none" xmlns="http://www.w3.org/2000/svg">
<path d="M0 37.5V33.3333H33.3333V37.5H0ZM8.33333 29.1667C6.04167 29.1667 4.07986 28.3507 2.44792 26.7187C0.815972 25.0868 0 23.125 0 20.8333V0H33.3333C34.4792 0 35.4601 0.407986 36.276 1.22396C37.092 2.03993 37.5 3.02083 37.5 4.16667V10.4167C37.5 11.5625 37.092 12.5434 36.276 13.3594C35.4601 14.1753 34.4792 14.5833 33.3333 14.5833H29.1667V20.8333C29.1667 23.125 28.3507 25.0868 26.7187 26.7187C25.0868 28.3507 23.125 29.1667 20.8333 29.1667H8.33333ZM8.33333 25H20.8333C21.9792 25 22.9601 24.592 23.776 23.776C24.592 22.9601 25 21.9792 25 20.8333V4.16667H4.16667V20.8333C4.16667 21.9792 4.57465 22.9601 5.39062 23.776C6.2066 24.592 7.1875 25 8.33333 25ZM29.1667 10.4167H33.3333V4.16667H29.1667V10.4167ZM8.33333 25H4.16667H25H8.33333Z" fill="#F2EDD7"/>
</svg>
